<svg id="Capa_1" enable-background="new 0 0 512 512" height="512" viewBox="0 0 512 512" width="512" xmlns="http://www.w3.org/2000/svg"><g><g><g><path d="m507.7 147.01c-13.571-9.043-21.446-24.738-20.504-41.089.26-4.512-2.642-8.605-6.952-9.965l-302.671-95.49c-4.31-1.36-9.036.326-11.412 4.171-8.611 13.932-24.067 22.266-40.371 21.883-4.368-.103-8.245 2.8-9.56 6.967l-34.862 110.498c-1.315 4.167.194 8.769 3.831 11.192 13.571 9.043 21.447 24.738 20.504 41.089-.26 4.512 2.642 8.605 6.952 9.965l302.67 95.491c4.31 1.36 9.036-.326 11.412-4.171 8.611-13.932 24.067-22.266 40.371-21.883 4.368.103 8.245-2.8 9.56-6.967l34.862-110.498c1.315-4.168-.194-8.77-3.83-11.193z" fill="#706c64"/><path d="m511.533 158.201-34.863 110.503c-1.314 4.164-5.198 7.067-9.566 6.964-16.298-.386-31.752 7.949-40.37 21.88-2.375 3.85-7.098 5.537-11.414 4.175l-115.674-36.495c81.038 10.088 160.252-38.71 185.704-119.384 2.117-6.711 3.805-13.453 5.065-20.194 3.417 8.583 9.386 16.099 17.279 21.359 3.638 2.422 5.153 7.029 3.839 11.192z" fill="#595751"/><path d="m374.841 96.921-168-53.003c-8.594-2.711-13.362-11.876-10.651-20.469 2.711-8.594 11.876-13.362 20.469-10.651l168 53.003c8.594 2.711 13.362 11.876 10.651 20.469-2.711 8.594-11.875 13.362-20.469 10.651z" fill="#8f8b81"/><path d="m280.813 33.037-103.24-32.571c-4.31-1.36-9.036.326-11.412 4.171-8.611 13.932-24.067 22.266-40.371 21.883-4.369-.102-8.245 2.8-9.56 6.967l-34.862 110.498c-1.315 4.167.194 8.769 3.831 11.192 13.571 9.043 21.446 24.738 20.504 41.089-.26 4.512 2.642 8.605 6.952 9.965l103.239 32.572z" fill="#e8e4d8"/><path d="m280.813 33.036-64.919 205.768-97.318-30.703c54.906-15.977 101.069-58.207 119.564-116.828 7.294-23.118 9.604-46.606 7.531-69.323z" fill="#d8d4c9"/><path d="m280.813 33.037-64.153-20.24c-8.594-2.711-17.758 2.057-20.469 10.651-2.711 8.594 2.057 17.758 10.651 20.469l64.153 20.24z" fill="#f1eee0"/><path d="m217.108 30.048c-2.711 8.594 2.057 17.758 10.651 20.469l18.437 5.817c8.594 2.711 17.758-2.057 20.469-10.651 2.711-8.594-2.057-17.758-10.651-20.469l-18.437-5.817c-8.593-2.712-17.758 2.057-20.469 10.651z" fill="#fff"/></g><g><g><path d="m459.263 175.805c2.341-7.419-1.776-15.331-9.195-17.672l-81.853-25.824c-7.419-2.341-15.331 1.776-17.672 9.196-2.341 7.419 1.776 15.331 9.195 17.672l81.852 25.823c7.42 2.341 15.332-1.776 17.673-9.195z" fill="#e8e4d8"/></g><g><path d="m405.259 143.996 22.833 7.204c7.419 2.341 11.536 10.253 9.196 17.672-2.341 7.419-10.253 11.536-17.672 9.196l-22.833-7.204c-7.419-2.341-11.536-10.253-9.196-17.672 2.34-7.42 10.253-11.537 17.672-9.196z" fill="#f9f8f2"/></g><g><path d="m443.965 224.291c2.341-7.419-1.776-15.331-9.196-17.672l-148.569-46.874c-7.419-2.341-15.331 1.776-17.672 9.196-2.341 7.419 1.776 15.331 9.196 17.672l148.57 46.873c7.419 2.341 15.331-1.776 17.671-9.195z" fill="#e8e4d8"/></g><g><path d="m343.128 177.706 66.8 21.075c7.419 2.341 11.536 10.253 9.196 17.672-2.341 7.419-10.253 11.536-17.672 9.196l-66.8-21.075c-7.419-2.341-11.536-10.253-9.196-17.672 2.341-7.42 10.253-11.537 17.672-9.196z" fill="#f9f8f2"/></g></g></g><g><g><path d="m124.358 99.784 17.072-6.417c3.303-1.241 7.026-.45 9.538 2.027l12.986 12.806c1.561 1.54 3.629 2.46 5.818 2.59l18.206 1.082c3.522.209 6.602 2.447 7.889 5.732l6.655 16.981c.8 2.042 2.314 3.723 4.261 4.732l16.192 8.393c3.133 1.624 5.036 4.92 4.876 8.445l-.827 18.219c-.099 2.191.6 4.343 1.968 6.056l11.378 14.254c2.201 2.758 2.599 6.543 1.019 9.698l-8.166 16.308c-.982 1.961-1.218 4.211-.666 6.333l4.597 17.649c.889 3.415-.287 7.035-3.013 9.274l-14.093 11.576c-1.694 1.392-2.826 3.352-3.184 5.515l-2.979 17.993c-.576 3.481-3.123 6.31-6.525 7.247l-17.583 4.843c-2.114.582-3.945 1.912-5.152 3.743l-10.04 15.226c-1.942 2.946-5.42 4.494-8.908 3.966l-18.033-2.727c-2.168-.328-4.382.143-6.229 1.324l-15.365 9.826c-2.973 1.901-6.779 1.901-9.752 0l-15.365-9.826c-1.847-1.181-4.061-1.652-6.229-1.324l-18.033 2.727c-3.489.528-6.966-1.021-8.908-3.966l-10.04-15.226c-1.207-1.831-3.038-3.161-5.152-3.743l-17.583-4.843c-3.402-.937-5.949-3.766-6.525-7.247l-2.979-17.993c-.358-2.163-1.49-4.123-3.184-5.515l-14.094-11.574c-2.727-2.24-3.903-5.86-3.013-9.274l4.597-17.649c.553-2.122.316-4.373-.666-6.333l-8.166-16.308c-1.58-3.155-1.182-6.941 1.019-9.698l11.378-14.254c1.368-1.714 2.067-3.866 1.968-6.056l-.827-18.219c-.16-3.525 1.743-6.821 4.876-8.445l16.192-8.393c1.947-1.009 3.461-2.691 4.261-4.732l6.655-16.981c1.287-3.285 4.367-5.523 7.889-5.732l18.206-1.082c2.189-.13 4.256-1.05 5.818-2.59l12.986-12.806c2.512-2.478 6.236-3.269 9.538-2.027l17.072 6.417c2.053.769 4.316.769 6.369-.002z" fill="#fe255f"/><path d="m233.225 220.69c-.98 1.96-1.217 4.211-.668 6.332l4.598 17.651c.894 3.414-.291 7.032-3.015 9.272l-14.097 11.577c-1.691 1.389-2.822 3.349-3.177 5.514l-2.983 17.995c-.571 3.478-3.123 6.311-6.526 7.248l-17.575 4.846c-2.121.582-3.952 1.906-5.158 3.737l-10.037 15.228c-1.949 2.951-5.417 4.501-8.906 3.974l-18.038-2.735c-2.165-.323-4.383.151-6.225 1.325l-15.368 9.832c-2.972 1.895-6.785 1.895-9.757 0l-15.357-9.832c-1.852-1.174-4.06-1.648-6.235-1.325l-18.027 2.735c-3.489.528-6.968-1.023-8.917-3.974l-10.037-15.229c-1.206-1.831-3.037-3.155-5.148-3.737l-17.586-4.846c-3.403-.937-5.945-3.769-6.526-7.248l-2.821-17.08c17.274 11.308 37.918 17.877 60.102 17.877 60.716 0 109.942-49.215 109.942-109.931 0-26.137-9.121-50.141-24.36-69.008l16.649.98c3.532.215 6.612 2.455 7.894 5.74l6.655 16.972c.797 2.046 2.315 3.726 4.265 4.738l16.186 8.389c3.134 1.626 5.04 4.921 4.878 8.443l-.829 18.221c-.097 2.197.603 4.351 1.971 6.063l11.383 14.248c2.197 2.757 2.595 6.548 1.012 9.703z" fill="#e01152"/></g><g><g><g><g><g><path d="m85.564 157.296c-11.271 0-20.441 9.17-20.441 20.442 0 11.271 9.17 20.441 20.441 20.441 11.272 0 20.442-9.17 20.442-20.441 0-11.272-9.17-20.442-20.442-20.442z" fill="#ffc751"/></g></g><g><g><path d="m156.784 228.516c-11.272 0-20.442 9.17-20.442 20.441 0 11.272 9.17 20.442 20.442 20.442 11.271 0 20.441-9.17 20.441-20.442 0-11.271-9.17-20.441-20.441-20.441z" fill="#ffc751"/></g></g></g><g><g><path d="m80.399 254.122c-6.42-6.42-6.42-16.829 0-23.249l62.546-62.546c6.42-6.42 16.829-6.42 23.249 0 6.42 6.42 6.42 16.829 0 23.249l-62.546 62.546c-6.42 6.42-16.829 6.42-23.249 0z" fill="#ffc751"/></g><path d="m121.559 189.713-11.711 11.711c-6.42 6.42-6.42 16.829 0 23.249 6.42 6.42 16.829 6.42 23.249 0l11.711-11.711c6.42-6.42 6.42-16.829 0-23.249-6.42-6.42-16.829-6.42-23.249 0z" fill="#ffe059"/></g></g></g></g><g><g><path d="m83.06 498.009-40.38-148.342c-2.751-10.108 3.212-20.532 13.32-23.284l359.638-97.897c10.108-2.751 20.532 3.212 23.284 13.32l40.38 148.342c2.751 10.108-3.212 20.532-13.32 23.284l-359.638 97.897c-10.109 2.752-20.533-3.212-23.284-13.32z" fill="#fe255f"/><path d="m438.927 241.809 40.38 148.341c2.751 10.108-3.212 20.533-13.32 23.284l-146.994 40.013c69.407-42.735 105.474-127.498 82.983-210.122-.945-3.472-1.981-6.899-3.115-10.267l16.783-4.568c10.107-2.752 20.531 3.211 23.283 13.319z" fill="#e01152"/><g><path d="m94.516 338.016c3.096 11.372 14.824 18.082 26.196 14.986l215.353-58.621c11.372-3.096 18.082-14.824 14.986-26.196-3.096-11.372-14.824-18.082-26.196-14.986l-215.353 58.621c-11.373 3.096-18.082 14.824-14.986 26.196z" fill="#fc709b"/></g><g><path d="m214.85 283.143-56.413 15.356c-11.372 3.096-18.082 14.824-14.986 26.196 3.096 11.372 14.824 18.082 26.196 14.986l56.413-15.356c11.372-3.096 18.082-14.824 14.986-26.196-3.095-11.372-14.824-18.081-26.196-14.986z" fill="#f7a6c1"/></g></g><g><g fill="#f9f8f2"><path d="m317.778 377.628-18.737 5.1-14.755-54.205c-1.714-6.296-8.206-10.01-14.502-8.296s-10.01 8.207-8.296 14.502l17.858 65.605c1.714 6.296 8.207 10.01 14.502 8.296l30.136-8.203c6.296-1.714 10.01-8.207 8.296-14.502-1.713-6.296-8.207-10.011-14.502-8.297z"/><path d="m145.724 379.232c.917-.745 1.971-1.284 3.133-1.6 2.739-.745 5.662-.081 7.821 1.777 4.945 4.257 12.405 3.7 16.661-1.245 4.257-4.945 3.7-12.405-1.245-16.661-8.114-6.986-19.121-9.479-29.443-6.67-4.358 1.186-8.336 3.225-11.826 6.059-7.391 6.006-10.93 15.582-9.232 24.991 1.713 9.495 8.446 17.307 17.57 20.385l23.511 7.932c1.417.478 1.807 1.704 1.908 2.209.276 1.367-.442 2.001-.678 2.21-.975.86-2.117 1.473-3.394 1.82-2.968.808-6.158-.053-8.324-2.248-4.583-4.644-12.06-4.695-16.707-.111-4.644 4.583-4.694 12.063-.111 16.707 8.149 8.258 20.16 11.496 31.348 8.451 4.798-1.306 9.111-3.628 12.822-6.902 6.997-6.174 10.066-15.368 8.208-24.593-1.87-9.279-8.581-16.916-17.517-19.931l-23.512-7.931c-1.366-.461-1.758-1.57-1.869-2.191-.183-1.01.112-1.837.876-2.458z"/><path d="m390.333 357.878-27.856 7.583-2.723-10.003 16.803-4.574c6.296-1.714 10.01-8.207 8.296-14.502s-8.207-10.01-14.502-8.296l-16.803 4.574-2.723-10.004 27.856-7.583c6.296-1.714 10.01-8.207 8.296-14.502s-8.207-10.01-14.502-8.296l-39.256 10.686c-6.296 1.714-10.01 8.207-8.296 14.502l17.858 65.605c1.714 6.296 8.207 10.01 14.502 8.296l39.256-10.686c6.296-1.714 10.01-8.207 8.296-14.502s-8.206-10.012-14.502-8.298z"/><path d="m267.598 399.363-41.835-59.478c-1.272-1.808-2.964-3.139-4.846-3.978-4.949-2.329-11.319-.594-14.405 3.921-1.197 1.678-1.981 3.682-2.161 5.886l-5.916 72.476c-.531 6.503 4.311 12.205 10.814 12.736 6.319.516 11.867-4.046 12.664-10.27l26.697-7.267c3.842 4.961 10.937 6.081 16.122 2.434 5.336-3.754 6.62-11.123 2.866-16.46zm-33.474-6.519-10.139 2.76 1.256-15.389z"/></g></g></g><g><g><circle cx="282.867" cy="228.648" fill="#ffc751" r="91.294"/><g><g><path d="m374.166 228.646c0 50.42-40.881 91.3-91.3 91.3-5.985 0-11.823-.574-17.478-1.686 45.021-7.145 79.428-46.145 79.428-93.181 0-39.781-24.611-73.81-59.446-87.697 49.259 1.331 88.796 41.687 88.796 91.264z" fill="#ffaf40"/><path d="m240.782 289.76c.088-.088.176-.176.264-.264 6.795-6.787 7.061-17.653.728-24.874-8.435-9.617-13.555-22.209-13.555-35.976 0-23.629 15.077-43.791 36.115-51.395 7.162-2.589 11.833-9.518 11.833-17.133 0-12.672-12.582-21.593-24.493-17.265-35.057 12.738-60.098 46.331-60.098 85.793 0 23.092 8.575 44.176 22.714 60.248 6.933 7.879 19.067 8.283 26.492.866z" fill="#ffe059"/><path d="m219.601 162.877c-8.051 7.74-14.683 16.944-19.47 27.184-5.637 12.06 3.098 25.902 16.411 25.902h.406c7.027 0 13.423-4.058 16.407-10.42 2.85-6.078 6.789-11.546 11.563-16.156 6.894-6.657 7.406-17.501 1.215-24.816-.08-.095-.161-.19-.241-.285-6.716-7.931-18.8-8.611-26.291-1.409z" fill="#fff370"/></g></g></g><g><g><g><g><g><path d="m250.519 177.729c-10.239 0-18.57 8.331-18.57 18.571 0 10.239 8.331 18.57 18.57 18.57 10.24 0 18.571-8.331 18.571-18.57-.001-10.24-8.331-18.571-18.571-18.571z" fill="#fe255f"/></g></g><g><g><path d="m315.22 242.43c-10.24 0-18.571 8.331-18.571 18.57 0 10.24 8.331 18.571 18.571 18.571 10.239 0 18.57-8.331 18.57-18.571 0-10.239-8.331-18.57-18.57-18.57z" fill="#fe255f"/></g></g></g><g><g><path d="m245.826 265.693c-5.833-5.833-5.833-15.289 0-21.121l56.822-56.822c5.833-5.833 15.289-5.833 21.121 0 5.833 5.833 5.833 15.289 0 21.121l-56.822 56.822c-5.832 5.833-15.288 5.833-21.121 0z" fill="#fe255f"/></g><path d="m283.219 207.179-10.639 10.639c-5.833 5.833-5.833 15.289 0 21.121 5.833 5.833 15.289 5.833 21.121 0l10.639-10.639c5.833-5.833 5.833-15.289 0-21.121-5.832-5.833-15.288-5.833-21.121 0z" fill="#fc709b"/></g></g></g></g></g></svg>